<?xml version="1.0" standalone="no"?>
<!DOCTYPE svg PUBLIC "-//W3C//DTD SVG 20010904//EN"
 "http://www.w3.org/TR/2001/REC-SVG-20010904/DTD/svg10.dtd">
<svg version="1.0" xmlns="http://www.w3.org/2000/svg"
 width="360.000000pt" height="360.000000pt" viewBox="0 0 360.000000 360.000000"
 preserveAspectRatio="xMidYMid meet">
<metadata>
Created by potrace 1.14, written by Peter Selinger 2001-2017
</metadata>
<g transform="translate(0.000000,360.000000) scale(0.100000,-0.100000)"
fill="#000000" stroke="none">
<path d="M2320 3013 c-85 -39 -212 -104 -227 -116 -56 -42 -165 -161 -186
-204 -52 -102 -70 -172 -70 -273 0 -93 23 -210 42 -210 17 0 147 138 211 225
88 118 136 211 105 198 -8 -3 -12 -9 -9 -14 7 -12 -27 -69 -38 -63 -4 3 -8 -3
-8 -13 0 -10 -9 -29 -20 -43 -22 -28 -26 -21 -9 13 9 18 9 20 -1 10 -7 -7 -14
-23 -16 -35 -1 -13 -3 -26 -3 -30 -1 -5 -7 -8 -15 -8 -8 0 -18 -4 -21 -10 -4
-6 1 -7 10 -3 15 5 15 3 4 -16 -8 -11 -17 -21 -22 -21 -4 0 -5 5 -2 10 3 6 1
10 -5 10 -7 0 -10 -7 -6 -15 8 -22 -64 -100 -91 -99 -12 1 -20 -3 -17 -8 3 -4
10 -6 15 -3 24 15 5 -13 -25 -37 l-33 -27 -13 27 c-6 15 -14 70 -17 122 -5 78
-2 109 17 178 12 45 27 85 33 89 6 3 7 1 3 -5 -4 -7 -2 -12 4 -12 6 0 8 10 4
26 -5 21 -4 25 6 19 9 -5 11 -4 6 3 -10 16 25 74 41 68 8 -3 10 1 6 12 -3 9
-2 14 2 9 5 -4 15 7 22 24 10 23 17 29 31 25 12 -4 24 0 33 11 13 16 12 17 -4
4 -9 -8 -20 -12 -22 -9 -7 7 46 52 97 82 48 28 76 35 44 11 -22 -16 -10 -20
14 -5 8 5 11 12 7 16 -6 7 19 25 53 39 8 4 34 15 58 26 24 11 41 15 38 10 -12
-18 -16 -77 -14 -176 6 -225 -1 -294 -34 -363 -9 -17 -14 -19 -20 -10 -6 8 -7
4 -3 -11 5 -16 4 -21 -4 -17 -6 4 -9 2 -6 -6 6 -17 -80 -112 -94 -104 -6 4 -9
2 -6 -6 3 -8 -7 -21 -24 -31 -35 -21 -53 -22 -27 -2 11 8 15 15 9 15 -7 0 -15
-4 -18 -10 -8 -12 -35 -13 -35 -1 0 5 14 14 30 21 17 7 30 17 30 23 0 7 -4 7
-12 -1 -35 -35 -32 17 5 71 14 21 27 32 29 25 3 -7 5 2 5 20 0 39 5 45 39 45
14 0 22 2 18 6 -5 3 -10 22 -11 41 -2 26 0 31 7 20 7 -11 10 -11 10 -2 0 7 4
11 8 8 5 -3 9 1 9 9 0 8 -4 12 -9 9 -12 -8 -10 10 4 24 6 6 9 14 7 17 -3 3
-21 -22 -40 -56 -96 -170 -147 -251 -202 -318 -66 -81 -66 -81 48 -34 135 56
239 168 286 310 20 62 21 79 16 217 -4 90 -2 179 4 219 6 38 9 70 7 72 -2 2
-19 -3 -38 -12z m-129 -510 c-12 -20 -14 -14 -5 12 4 9 9 14 11 11 3 -2 0 -13
-6 -23z m-104 -188 c0 -8 -4 -12 -9 -9 -4 3 -8 0 -8 -7 0 -7 -2 -10 -5 -7 -7
7 5 38 14 38 4 0 8 -7 8 -15z m-18 -56 c4 -12 2 -12 -12 0 -10 7 -17 9 -17 3
0 -15 26 -22 39 -9 6 6 13 8 17 5 8 -9 -70 -48 -93 -47 -14 0 -13 2 5 9 26 11
30 23 5 13 -13 -5 -11 1 7 20 26 28 41 30 49 6z"/>
<path d="M1945 2690 c-3 -5 -1 -10 4 -10 6 0 11 5 11 10 0 6 -2 10 -4 10 -3 0
-8 -4 -11 -10z"/>
<path d="M1433 2553 c-4 -21 -8 -81 -8 -133 0 -83 3 -102 27 -150 36 -73 98
-134 172 -170 72 -34 76 -30 56 60 -13 57 -69 204 -76 197 -2 -2 3 -21 11 -41
9 -20 13 -41 10 -46 -4 -6 -1 -10 5 -10 6 0 9 -4 6 -9 -4 -5 -2 -11 4 -13 5
-1 14 -24 19 -51 7 -39 6 -49 -7 -56 -13 -7 -12 -10 6 -15 12 -4 22 -11 22
-16 0 -8 -56 11 -83 27 -5 3 0 15 10 26 9 12 11 17 4 10 -10 -9 -20 -9 -34 -2
-14 8 -18 8 -13 0 13 -20 -5 -11 -29 15 -14 15 -21 33 -18 42 4 13 3 14 -5 4
-7 -11 -14 -6 -31 21 -11 19 -21 41 -21 49 0 8 -4 18 -10 24 -5 5 -12 37 -15
72 -5 50 -3 68 10 89 9 14 12 22 6 19 -7 -5 -11 3 -11 22 0 41 9 45 42 17 15
-13 55 -38 88 -56 59 -31 116 -80 77 -66 -14 5 -16 3 -8 -11 6 -12 6 -23 -1
-33 -8 -11 -9 -11 -5 3 3 9 -1 22 -9 29 -23 19 -13 -16 31 -101 21 -41 48
-104 60 -140 l22 -65 12 57 c30 142 -41 273 -187 347 -24 12 -60 38 -82 57
l-39 35 -8 -38z m252 -153 c3 -5 1 -10 -5 -10 -6 0 -8 -5 -5 -10 4 -6 10 -8
14 -6 4 3 17 -17 29 -44 16 -36 21 -68 21 -122 l-1 -73 -13 44 c-8 24 -11 51
-8 60 4 13 3 13 -5 2 -8 -11 -11 -9 -17 10 -5 13 -19 41 -32 62 -19 30 -21 42
-13 57 6 11 8 20 5 20 -4 0 -3 5 0 10 3 6 10 10 15 10 5 0 12 -4 15 -10z"/>
<path d="M1690 2348 c0 -9 5 -20 10 -23 6 -3 10 -14 10 -23 0 -15 -2 -15 -10
-2 -11 18 -12 3 -1 -25 7 -18 8 -17 14 7 4 16 1 37 -8 54 -9 19 -15 23 -15 12z"/>
<path d="M1872 2508 c3 -35 21 -42 25 -11 2 15 1 15 -7 -2 -9 -17 -10 -15 -7
13 2 17 0 32 -5 32 -5 0 -8 -15 -6 -32z"/>
<path d="M1502 2494 c10 -10 20 -16 22 -13 3 3 -5 11 -17 18 -21 13 -21 12 -5
-5z"/>
<path d="M2246 2484 c-4 -9 -4 -19 -1 -22 3 -3 5 0 5 7 0 7 4 9 10 6 6 -3 7 1
4 9 -8 20 -10 20 -18 0z"/>
<path d="M2281 2484 c0 -11 3 -14 6 -6 3 7 2 16 -1 19 -3 4 -6 -2 -5 -13z"/>
<path d="M2012 2455 c6 -13 15 -22 19 -19 5 2 1 14 -9 24 -22 26 -24 25 -10
-5z"/>
<path d="M2048 2463 c7 -3 16 -2 19 1 4 3 -2 6 -13 5 -11 0 -14 -3 -6 -6z"/>
<path d="M1555 2450 c3 -5 16 -10 28 -9 21 0 21 1 2 9 -28 12 -37 12 -30 0z"/>
<path d="M2010 2405 c0 -8 4 -15 10 -15 5 0 7 7 4 15 -4 8 -8 15 -10 15 -2 0
-4 -7 -4 -15z"/>
<path d="M1902 2390 c0 -14 2 -19 5 -12 2 6 2 18 0 25 -3 6 -5 1 -5 -13z"/>
<path d="M2156 2363 c-6 -14 -5 -15 5 -6 7 7 10 15 7 18 -3 3 -9 -2 -12 -12z"/>
<path d="M1955 2359 c-11 -17 1 -21 15 -4 8 9 8 15 2 15 -6 0 -14 -5 -17 -11z"/>
<path d="M2131 2354 c0 -11 3 -14 6 -6 3 7 2 16 -1 19 -3 4 -6 -2 -5 -13z"/>
<path d="M1506 2307 c3 -10 9 -15 12 -12 3 3 0 11 -7 18 -10 9 -11 8 -5 -6z"/>
<path d="M1890 2301 c0 -5 7 -12 16 -15 14 -5 15 -4 4 9 -14 17 -20 19 -20 6z"/>
<path d="M1491 2284 c0 -11 3 -14 6 -6 3 7 2 16 -1 19 -3 4 -6 -2 -5 -13z"/>
<path d="M1634 2162 c3 -5 0 -13 -6 -15 -9 -4 -10 -6 -1 -6 17 -1 25 16 12 25
-7 4 -9 3 -5 -4z"/>
<path d="M1196 2127 c3 -18 9 -34 13 -37 3 -3 7 -16 9 -29 5 -53 55 -141 106
-189 77 -72 133 -96 239 -100 48 -2 87 -1 87 3 0 31 -190 235 -219 235 -14 -1
-13 -2 2 -11 9 -6 15 -15 11 -20 -3 -5 -2 -8 3 -7 15 4 50 -21 78 -58 21 -27
24 -36 11 -31 -11 4 -15 3 -11 -4 4 -6 13 -8 20 -5 7 2 24 -8 39 -23 27 -28
35 -48 14 -35 -7 4 -8 3 -4 -5 4 -6 11 -9 16 -6 4 3 10 -1 13 -8 12 -33 -174
-9 -208 26 -7 7 -4 8 7 4 10 -3 20 -2 23 3 3 4 -7 7 -22 5 -40 -4 -76 12 -69
31 3 8 2 13 -3 10 -5 -3 -14 1 -21 9 -12 15 -4 21 23 16 5 -1 6 3 3 7 -3 5
-19 8 -36 6 -17 -2 -29 0 -26 5 3 5 0 14 -8 20 -16 14 -53 96 -60 134 -4 22
-1 27 17 28 20 1 21 2 2 6 -11 3 -24 9 -29 14 -5 5 6 4 25 -1 18 -6 35 -10 37
-10 2 0 1 -3 -1 -7 -3 -5 15 -6 39 -5 24 2 75 -1 114 -8 66 -11 85 -22 58 -33
-7 -3 1 -6 17 -7 29 -1 65 -20 65 -34 0 -4 -10 -5 -22 -2 -13 3 -17 3 -10 0 6
-3 10 -10 6 -15 -3 -5 -2 -9 3 -8 18 3 33 -2 33 -11 0 -5 -8 -6 -17 -3 -16 6
-16 5 -4 -10 12 -15 12 -17 -3 -11 -9 3 -16 9 -16 13 0 4 -11 13 -25 19 -22
10 -24 15 -15 34 10 22 10 22 -4 4 -14 -17 -16 -17 -31 -2 -12 12 -13 16 -3
16 10 0 9 3 -2 10 -12 8 -12 10 -1 10 8 0 12 3 9 6 -3 3 -15 0 -26 -7 -23 -15
-23 -15 63 -81 34 -25 67 -53 74 -62 17 -21 31 -20 31 1 0 9 -3 13 -7 10 -3
-4 -12 -2 -19 4 -10 8 -11 16 -3 31 8 14 7 24 -3 35 -11 14 -11 15 0 12 23 -8
90 -139 71 -139 -5 0 -13 10 -18 22 -5 15 -10 18 -15 9 -5 -7 0 -19 11 -29 11
-9 27 -28 37 -42 l18 -25 -7 40 c-3 22 -17 63 -29 90 -25 56 -104 138 -124
130 -7 -3 -11 -1 -8 4 5 8 -24 23 -69 35 -11 3 -60 10 -110 16 -49 6 -103 17
-118 25 l-28 14 7 -32z"/>
<path d="M1808 2088 c-48 -53 -75 -108 -93 -194 -23 -107 -16 -189 15 -189 12
0 16 20 22 95 10 137 36 226 90 303 29 40 8 32 -34 -15z m-23 -58 c-3 -5 -8
-18 -10 -27 -3 -10 -12 -45 -21 -78 -9 -33 -16 -74 -15 -92 0 -17 -4 -42 -9
-55 -21 -47 -1 136 21 192 23 60 28 70 35 70 3 0 2 -4 -1 -10z m-58 -302 c-3
-8 -6 -5 -6 6 -1 11 2 17 5 13 3 -3 4 -12 1 -19z"/>
<path d="M2000 2087 c-97 -27 -174 -95 -213 -189 l-15 -36 46 31 c26 18 49 34
52 37 3 3 45 25 93 49 80 39 102 61 69 67 -8 2 -8 0 -2 -3 7 -3 4 -10 -7 -19
-21 -16 -37 -18 -28 -4 4 6 -9 17 -27 25 -21 9 -27 15 -15 16 26 2 31 4 44 12
20 13 246 -1 255 -15 6 -10 8 -9 8 2 0 13 1 13 10 0 8 -13 10 -12 10 4 0 11 3
17 6 13 9 -9 -6 -48 -17 -42 -5 4 -9 -3 -9 -15 0 -13 -4 -19 -12 -14 -6 4 -8
3 -5 -4 9 -14 -3 -43 -14 -36 -5 3 -6 -2 -3 -11 5 -11 0 -18 -15 -22 -11 -3
-18 -9 -15 -14 3 -5 1 -9 -5 -9 -5 0 -12 6 -15 13 -4 8 -5 7 -5 -3 2 -32 -2
-39 -38 -61 -31 -19 -120 -59 -131 -59 -2 0 0 6 4 13 6 10 4 10 -7 0 -16 -15
-139 -18 -139 -3 0 6 -10 10 -21 10 -21 0 -21 1 6 25 22 21 30 23 41 14 12 -9
18 -9 27 0 9 10 8 11 -8 5 -18 -7 -18 -6 -6 9 7 9 10 17 5 17 -5 1 1 9 13 19
12 10 35 17 52 16 16 -1 28 2 26 6 -3 4 -2 9 2 12 8 4 -5 1 -34 -9 -10 -3 -2
4 17 14 24 14 40 17 52 11 25 -14 48 0 46 27 -1 13 -6 24 -11 24 -5 0 -6 -9
-2 -19 7 -24 -9 -35 -32 -21 -16 9 -15 10 4 5 18 -5 22 -3 17 9 -3 9 -8 16
-10 16 -27 0 -244 -159 -244 -179 0 -15 54 -32 115 -38 144 -13 281 74 368
235 l38 71 -68 -2 c-37 -1 -99 1 -138 5 -46 5 -86 3 -115 -5z m-41 -48 c24 -9
29 -14 19 -20 -10 -7 -10 -9 2 -9 8 -1 -14 -15 -50 -32 -36 -16 -79 -41 -97
-54 l-32 -25 17 30 c9 16 20 27 24 25 5 -3 8 0 8 7 0 21 52 69 74 69 17 0 18
2 6 10 -20 13 -10 12 29 -1z"/>
<path d="M1900 2010 c-8 -5 -10 -10 -5 -10 6 0 17 5 25 10 8 5 11 10 5 10 -5
0 -17 -5 -25 -10z"/>
<path d="M1251 2044 c0 -11 3 -14 6 -6 3 7 2 16 -1 19 -3 4 -6 -2 -5 -13z"/>
<path d="M2220 2043 c8 -3 19 -11 23 -17 6 -7 7 -6 4 4 -2 8 -12 16 -23 17
-13 2 -15 1 -4 -4z"/>
<path d="M2173 1996 c13 -10 17 -22 12 -38 -6 -22 -5 -22 6 -3 7 11 16 23 22
26 5 4 -6 11 -25 18 -29 9 -31 9 -15 -3z"/>
<path d="M1443 1933 c0 -8 6 -9 19 -2 10 5 18 11 18 12 0 2 -8 3 -18 3 -10 0
-19 -6 -19 -13z"/>
<path d="M2056 1937 c-16 -12 -16 -13 2 -13 10 0 19 6 19 13 0 7 -1 13 -2 13
-1 0 -9 -6 -19 -13z"/>
<path d="M2085 1900 c-3 -5 -2 -10 4 -10 5 0 13 5 16 10 3 6 2 10 -4 10 -5 0
-13 -4 -16 -10z"/>
<path d="M2109 1873 c-12 -16 -12 -17 1 -7 8 6 22 14 30 17 13 5 12 6 -1 6 -9
1 -23 -7 -30 -16z"/>
<path d="M1540 1856 c0 -2 7 -7 16 -10 8 -3 12 -2 9 4 -6 10 -25 14 -25 6z"/>
<path d="M1548 1823 c7 -3 16 -2 19 1 4 3 -2 6 -13 5 -11 0 -14 -3 -6 -6z"/>
<path d="M1910 1820 c-9 -6 -10 -10 -3 -10 6 0 15 5 18 10 8 12 4 12 -15 0z"/>
<path d="M1470 1816 c0 -2 9 -6 20 -9 11 -3 18 -1 14 4 -5 9 -34 13 -34 5z"/>
<path d="M1315 1681 c-71 -18 -115 -70 -115 -137 0 -70 121 -663 140 -687 l18
-22 396 0 c357 0 397 2 412 17 17 17 143 618 144 686 0 49 -27 98 -69 124 -36
23 -38 23 -466 25 -236 0 -443 -2 -460 -6z"/>
<path d="M1296 784 c-20 -19 -20 -24 0 -52 l15 -22 435 0 c281 0 442 4 455 10
24 13 26 65 3 74 -9 3 -213 6 -454 6 -385 0 -440 -2 -454 -16z"/>
</g>
</svg>
